<svg t="1704181610361" class="icon" viewBox="0 0 1024 1024" version="1.1" xmlns="http://www.w3.org/2000/svg" p-id="1796" width="81" height="81"><path d="M341.333333 554.666667a128 128 0 0 1 127.786667 120.490666L469.333333 682.666667v85.333333a128 128 0 0 1-120.490666 127.786667L341.333333 896H256a128 128 0 0 1-127.786667-120.490667L128 768v-85.333333a128 128 0 0 1 120.490667-127.786667L256 554.666667h85.333333z m426.666667 0a128 128 0 0 1 127.786667 120.490666L896 682.666667v85.333333a128 128 0 0 1-120.490667 127.786667L768 896h-85.333333a128 128 0 0 1-127.786667-120.490667L554.666667 768v-85.333333a128 128 0 0 1 120.490666-127.786667L682.666667 554.666667h85.333333zM341.333333 618.666667H256A64 64 0 0 0 192 682.666667v85.333333A64 64 0 0 0 256 832h85.333333A64 64 0 0 0 405.333333 768v-85.333333A64 64 0 0 0 341.333333 618.666667z m426.666667 0h-85.333333a64 64 0 0 0-64 64v85.333333a64 64 0 0 0 64 64h85.333333a64 64 0 0 0 64-64v-85.333333a64 64 0 0 0-64-64zM341.333333 128a128 128 0 0 1 127.786667 120.490667L469.333333 256v85.333333a128 128 0 0 1-120.490666 127.786667L341.333333 469.333333H256a128 128 0 0 1-127.786667-120.490666L128 341.333333V256a128 128 0 0 1 120.490667-127.786667L256 128h85.333333z m426.666667 0a128 128 0 0 1 127.786667 120.490667L896 256v85.333333a128 128 0 0 1-120.490667 127.786667L768 469.333333h-85.333333a128 128 0 0 1-127.786667-120.490666L554.666667 341.333333V256a128 128 0 0 1 120.490666-127.786667L682.666667 128h85.333333zM341.333333 192H256A64 64 0 0 0 192 256v85.333333A64 64 0 0 0 256 405.333333h85.333333A64 64 0 0 0 405.333333 341.333333V256A64 64 0 0 0 341.333333 192z m426.666667 0h-85.333333A64 64 0 0 0 618.666667 256v85.333333A64 64 0 0 0 682.666667 405.333333h85.333333A64 64 0 0 0 832 341.333333V256A64 64 0 0 0 768 192z" fill="#bbbbbb" p-id="1797"></path></svg>