<svg t="1704190882932" class="icon" viewBox="0 0 1024 1024" version="1.1" xmlns="http://www.w3.org/2000/svg" p-id="925" width="81" height="81"><path d="M923.811 364.058a12894.669 12894.669 0 0 1-48.91-68.644 20112.138 20112.138 0 0 1-56.726-80.589c-20.557-29.345-36.86-52.506-48.91-69.485-4.93-8.227-12.06-12.34-21.39-12.34H256.185c-7.121 0-12.875 2.464-17.26 7.393l-0.815 0.816c-1.105 1.105-2.201 2.473-3.289 4.104-14.26 23.03-36.326 58.935-66.197 107.715-29.87 48.78-52.752 85.78-68.644 111.003-6.033 9.875-5.209 19.47 2.474 28.784 0.543 0 0.956 0.14 1.236 0.42 0.28 0.281 0.421 0.694 0.421 1.237 42.763 54.27 106.487 135.665 191.171 244.187 84.685 108.521 148.128 189.645 190.33 243.37 5.49 7.122 11.795 10.139 18.917 9.051 2.736 0 5.48-0.684 8.235-2.052 2.754-1.368 5.499-3.7 8.235-6.998 32.344-40.01 74.414-91.534 126.21-154.574 51.797-63.04 100.445-122.51 145.944-178.41 45.5-55.901 87.71-107.425 126.632-154.574l1.658-3.288c7.682-9.314 8.507-18.356 2.473-27.126h-0.106z m-69.064-12.314H703.462a9153.327 9153.327 0 0 1 16.444-44.806 22882.092 22882.092 0 0 0 18.917-51.384 7897.185 7897.185 0 0 0 16.444-45.228c10.963 15.892 27.547 39.597 49.753 71.117 22.206 31.52 38.79 54.954 49.753 70.301h-0.026zM502.846 193.882a58709.111 58709.111 0 0 1 33.703 48.911 20323.13 20323.13 0 0 1 41.123 60.014c15.91 23.294 27.144 39.597 33.704 48.911H391.842c58.655-82.772 95.656-135.393 111.004-157.862v0.026z m129.92 207.194c-20.276 55.357-35.212 96.191-44.806 122.501-9.595 26.31-22.75 62.075-39.466 107.294-16.716 45.219-31.651 85.92-44.806 122.106-52.077-146.355-94.56-263.656-127.448-351.9h256.526z m25.495-68.249c-14.26-20.276-48.797-70.433-103.61-150.469h158.678a49388.457 49388.457 0 0 1-28.363 77.695c-12.33 33.712-21.241 57.97-26.731 72.774h0.026z m-309.147-4.946c-19.189-50.428-38.097-98.936-56.725-145.523h158.678c-35.624 50.428-69.609 98.936-101.953 145.523z m-97.848-115.924c17.54 44.395 35.633 90.99 54.278 139.787H165.757c26.854-43.307 55.357-89.902 85.509-139.787z m73.17 189.12c33.992 90.998 77.57 212.14 130.735 363.424C349.386 628.564 254.835 507.423 171.52 401.076h152.942-0.026z m360.951 0h165.255c-48.235 59.198-148.267 181.436-300.096 366.713a207585.41 207585.41 0 0 0 23.022-62.066c8.226-22.188 15.356-41.78 21.39-58.777 6.034-16.997 13.848-38.238 23.443-63.724 9.594-25.486 16.856-44.947 21.785-58.383 4.929-13.436 12.602-34.677 23.021-63.723 10.42-29.047 17.821-49.052 22.206-60.014l-0.026-0.027z" fill="#333333" p-id="926"></path></svg>