<svg t="1704181674255" class="icon" viewBox="0 0 1024 1024" version="1.1" xmlns="http://www.w3.org/2000/svg" p-id="2041" width="81" height="81"><path d="M492.101818 740.887273a151.272727 151.272727 0 1 1 151.272727-151.272728 151.272727 151.272727 0 0 1-151.272727 151.272728z m0-244.363637a93.090909 93.090909 0 1 0 93.090909 93.090909 93.090909 93.090909 0 0 0-93.090909-93.672727z" fill="#bbbbbb" p-id="2042"></path><path d="M780.567273 985.716364H203.52A122.298182 122.298182 0 0 1 81.454545 863.534545V438.341818a29.090909 29.090909 0 1 1 58.181819 0v425.192727a64.116364 64.116364 0 0 0 64 64h576.930909a64.116364 64.116364 0 0 0 64-64V438.341818a29.090909 29.090909 0 0 1 58.181818 0v425.192727a122.298182 122.298182 0 0 1-122.181818 122.181819z" fill="#bbbbbb" p-id="2043"></path><path d="M940.334545 518.4a28.974545 28.974545 0 0 1-20.130909-8.145455L492.101818 98.56 63.883636 510.254545A29.090909 29.090909 0 0 1 23.272727 468.363636l448.349091-430.545454A29.090909 29.090909 0 0 1 512 37.236364l448.349091 430.545454a29.090909 29.090909 0 0 1-20.130909 50.036364z" fill="#bbbbbb" p-id="2044"></path></svg>